# Blender 5.1.2
# www.blender.org
mtllib front cubicals.mtl
o Cube.016
v 8.691018 -0.073154 23.915308
v 8.691018 6.368166 23.915308
v -0.213403 -0.073154 23.915308
v -0.213403 6.368166 23.915308
v 8.691018 -0.073154 23.551123
v 8.691018 6.368166 23.551123
v -0.213403 -0.073154 23.551123
v -0.213403 6.368166 23.551123
v 0.176835 -0.073154 15.372989
v 0.176835 6.368166 15.372989
v -8.727584 -0.073154 15.372990
v -8.727584 6.368166 15.372990
v 0.176835 -0.073154 15.008805
v 0.176835 6.368166 15.008805
v -8.727584 -0.073154 15.008806
v -8.727584 6.368166 15.008806
v -0.173594 -0.073154 23.906796
v -0.173594 6.368166 23.906796
v -0.173594 -0.073154 15.002376
v -0.173594 6.368166 15.002376
v 0.190590 -0.073154 23.906796
v 0.190590 6.368166 23.906796
v 0.190590 -0.073154 15.002376
v 0.190590 6.368166 15.002376
v 8.371175 -0.073154 17.910606
v 8.371175 6.368166 17.910606
v 8.371175 -0.073154 15.050796
v 8.371175 6.368166 15.050796
v 8.735359 -0.073154 17.910606
v 8.735359 6.368166 17.910606
v 8.735359 -0.073154 15.050796
v 8.735359 6.368166 15.050796
v -8.732184 -0.073154 17.910606
v -8.732184 6.368166 17.910606
v -8.732184 -0.073154 15.050797
v -8.732184 6.368166 15.050797
v -8.368000 -0.073154 17.910606
v -8.368000 6.368166 17.910606
v -8.368000 -0.073154 15.050797
v -8.368000 6.368166 15.050797
v 0.192163 -0.073154 23.915308
v 0.192163 6.368166 23.915308
v -8.712257 -0.073154 23.915308
v -8.712257 6.368166 23.915308
v 0.192163 -0.073154 23.551123
v 0.192163 6.368166 23.551123
v -8.712257 -0.073154 23.551125
v -8.712257 6.368166 23.551125
v 8.730923 -0.073154 15.351097
v 8.730923 6.368166 15.351097
v -0.173497 -0.073154 15.351097
v -0.173497 6.368166 15.351097
v 8.730923 -0.073154 14.986913
v 8.730923 6.368166 14.986913
v -0.173497 -0.073154 14.986913
v -0.173497 6.368166 14.986913
v 6.871926 -0.275372 16.731377
v 6.871926 0.098141 16.731377
v 6.871926 -0.275372 15.220601
v 6.871926 0.098141 15.220601
v 8.208895 -0.275372 16.731377
v 8.208895 0.098141 16.731377
v 8.208895 -0.275372 15.220601
v 8.208895 0.098141 15.220601
v 2.452097 2.133659 23.744827
v 2.452097 2.366668 23.744827
v 0.134793 2.133659 23.744829
v 0.134793 2.366668 23.744829
v 2.452097 2.133659 15.202506
v 2.452097 2.366668 15.202506
v 0.134792 2.133659 15.202506
v 0.134792 2.366668 15.202506
v 0.134733 2.133659 17.604294
v 0.134733 2.366668 17.604294
v 0.134733 2.133659 15.286989
v 0.134733 2.366668 15.286989
v 8.677055 2.133659 17.604294
v 8.677055 2.366668 17.604294
v 8.677055 2.133659 15.286989
v 8.677055 2.366668 15.286989
v 6.677839 -0.094368 17.026272
v 6.677839 2.132380 17.026272
v 6.677838 -0.094368 15.076859
v 6.677838 2.132380 15.076859
v 8.402981 -0.094368 17.026272
v 8.402981 2.132380 17.026272
v 8.402981 -0.094368 15.076859
v 8.402981 2.132380 15.076859
v -1.518065 -0.275372 21.978813
v -1.518065 0.098141 21.978813
v -0.007289 -0.275372 21.978813
v -0.007289 0.098141 21.978813
v -1.518065 -0.275372 23.315783
v -1.518065 0.098141 23.315783
v -0.007289 -0.275372 23.315783
v -0.007289 0.098141 23.315783
v -8.531516 2.133659 17.558987
v -8.531516 2.366668 17.558987
v -8.531516 2.133659 15.241681
v -8.531516 2.366668 15.241681
v 0.010805 2.133659 17.558985
v 0.010805 2.366668 17.558985
v 0.010805 2.133659 15.241680
v 0.010805 2.366668 15.241680
v -2.390983 2.133659 15.241621
v -2.390983 2.366668 15.241621
v -0.073678 2.133659 15.241621
v -0.073678 2.366668 15.241621
v -2.390983 2.133659 23.783943
v -2.390983 2.366668 23.783943
v -0.073678 2.133659 23.783943
v -0.073678 2.366668 23.783943
v -1.812961 -0.094368 21.784727
v -1.812961 2.132380 21.784727
v 0.136452 -0.094368 21.784727
v 0.136452 2.132380 21.784727
v -1.812961 -0.094368 23.509869
v -1.812961 2.132380 23.509869
v 0.136452 -0.094368 23.509869
v 0.136452 2.132380 23.509869
vn -0.0000 -0.0000 1.0000
vn -1.0000 -0.0000 -0.0000
vn -0.0000 -0.0000 -1.0000
vn 1.0000 -0.0000 -0.0000
vn -0.0000 -1.0000 -0.0000
vn -0.0000 1.0000 -0.0000
vt 0.375000 0.000000
vt 0.625000 0.000000
vt 0.625000 0.250000
vt 0.375000 0.250000
vt 0.625000 0.500000
vt 0.375000 0.500000
vt 0.625000 0.750000
vt 0.375000 0.750000
vt 0.625000 1.000000
vt 0.375000 1.000000
vt 0.125000 0.500000
vt 0.125000 0.750000
vt 0.875000 0.500000
vt 0.875000 0.750000
vt 0.111949 0.000072
vt 0.138334 0.000072
vt 0.138334 0.026456
vt 0.111949 0.026456
vt 0.138334 0.052840
vt 0.111949 0.052840
vt 0.138334 0.079224
vt 0.111949 0.079224
vt 0.138334 0.105608
vt 0.111949 0.105608
vt 0.085565 0.052840
vt 0.085565 0.079224
vt 0.164718 0.052840
vt 0.164718 0.079224
vt 0.111949 0.105752
vt 0.138334 0.105752
vt 0.138334 0.132136
vt 0.111949 0.132136
vt 0.138334 0.158520
vt 0.111949 0.158520
vt 0.138334 0.184904
vt 0.111949 0.184904
vt 0.138334 0.211288
vt 0.111949 0.211288
vt 0.085565 0.158520
vt 0.085565 0.184904
vt 0.164718 0.158520
vt 0.164718 0.184904
vt 0.191245 0.000072
vt 0.217629 0.000072
vt 0.217629 0.026456
vt 0.191245 0.026456
vt 0.217629 0.052840
vt 0.191245 0.052840
vt 0.217629 0.079224
vt 0.191245 0.079224
vt 0.217629 0.105608
vt 0.191245 0.105608
vt 0.164861 0.052840
vt 0.164861 0.079224
vt 0.244014 0.052840
vt 0.244014 0.079224
vt 0.177101 0.210554
vt 0.164861 0.210554
vt 0.164861 0.178862
vt 0.177101 0.178862
vt 0.205754 0.105752
vt 0.205754 0.178719
vt 0.164861 0.178719
vt 0.164861 0.105752
vt 0.085422 0.774951
vt 0.073182 0.774951
vt 0.073182 0.000072
vt 0.085422 0.000072
vt 0.073039 0.999928
vt 0.000072 0.999928
vt 0.000072 0.000072
vt 0.073039 0.000072
s 1
f 1/1/1 2/2/1 4/3/1 3/4/1
f 3/4/2 4/3/2 8/5/2 7/6/2
f 7/6/3 8/5/3 6/7/3 5/8/3
f 5/8/4 6/7/4 2/9/4 1/10/4
f 3/11/5 7/6/5 5/8/5 1/12/5
f 8/5/6 4/13/6 2/14/6 6/7/6
f 9/15/1 10/16/1 12/17/1 11/18/1
f 11/18/2 12/17/2 16/19/2 15/20/2
f 15/20/3 16/19/3 14/21/3 13/22/3
f 13/22/4 14/21/4 10/23/4 9/24/4
f 11/25/5 15/20/5 13/22/5 9/26/5
f 16/19/6 12/27/6 10/28/6 14/21/6
f 17/29/2 18/30/2 20/31/2 19/32/2
f 19/32/3 20/31/3 24/33/3 23/34/3
f 23/34/4 24/33/4 22/35/4 21/36/4
f 21/36/1 22/35/1 18/37/1 17/38/1
f 19/39/5 23/34/5 21/36/5 17/40/5
f 24/33/6 20/41/6 18/42/6 22/35/6
f 25/1/2 26/2/2 28/3/2 27/4/2
f 27/4/3 28/3/3 32/5/3 31/6/3
f 31/6/4 32/5/4 30/7/4 29/8/4
f 29/8/1 30/7/1 26/9/1 25/10/1
f 27/11/5 31/6/5 29/8/5 25/12/5
f 32/5/6 28/13/6 26/14/6 30/7/6
f 33/1/2 34/2/2 36/3/2 35/4/2
f 35/4/3 36/3/3 40/5/3 39/6/3
f 39/6/4 40/5/4 38/7/4 37/8/4
f 37/8/1 38/7/1 34/9/1 33/10/1
f 35/11/5 39/6/5 37/8/5 33/12/5
f 40/5/6 36/13/6 34/14/6 38/7/6
f 41/1/1 42/2/1 44/3/1 43/4/1
f 43/4/2 44/3/2 48/5/2 47/6/2
f 47/6/3 48/5/3 46/7/3 45/8/3
f 45/8/4 46/7/4 42/9/4 41/10/4
f 43/11/5 47/6/5 45/8/5 41/12/5
f 48/5/6 44/13/6 42/14/6 46/7/6
f 49/43/1 50/44/1 52/45/1 51/46/1
f 51/46/2 52/45/2 56/47/2 55/48/2
f 55/48/3 56/47/3 54/49/3 53/50/3
f 53/50/4 54/49/4 50/51/4 49/52/4
f 51/53/5 55/48/5 53/50/5 49/54/5
f 56/47/6 52/55/6 50/56/6 54/49/6
f 57/1/2 58/2/2 60/3/2 59/4/2
f 59/4/3 60/3/3 64/5/3 63/6/3
f 63/6/4 64/5/4 62/7/4 61/8/4
f 61/57/1 62/58/1 58/59/1 57/60/1
f 59/11/5 63/6/5 61/8/5 57/12/5
f 64/5/6 60/13/6 58/14/6 62/7/6
f 65/1/1 66/2/1 68/3/1 67/4/1
f 67/4/2 68/3/2 72/5/2 71/6/2
f 71/6/3 72/5/3 70/7/3 69/8/3
f 69/8/4 70/7/4 66/9/4 65/10/4
f 67/11/5 71/6/5 69/8/5 65/12/5
f 72/5/6 68/13/6 66/14/6 70/7/6
f 73/1/2 74/2/2 76/3/2 75/4/2
f 75/4/3 76/3/3 80/5/3 79/6/3
f 79/6/4 80/5/4 78/7/4 77/8/4
f 77/8/1 78/7/1 74/9/1 73/10/1
f 75/11/5 79/6/5 77/8/5 73/12/5
f 80/5/6 76/13/6 74/14/6 78/7/6
f 81/1/2 82/2/2 84/3/2 83/4/2
f 83/4/3 84/3/3 88/5/3 87/6/3
f 87/6/4 88/5/4 86/7/4 85/8/4
f 85/61/1 86/62/1 82/63/1 81/64/1
f 83/11/5 87/6/5 85/8/5 81/12/5
f 88/5/6 84/13/6 82/14/6 86/7/6
f 89/1/3 90/2/3 92/3/3 91/4/3
f 91/4/4 92/3/4 96/5/4 95/6/4
f 95/6/1 96/5/1 94/7/1 93/8/1
f 93/65/2 94/66/2 90/67/2 89/68/2
f 91/11/5 95/6/5 93/8/5 89/12/5
f 96/5/6 92/13/6 90/14/6 94/7/6
f 97/1/2 98/2/2 100/3/2 99/4/2
f 99/4/3 100/3/3 104/5/3 103/6/3
f 103/6/4 104/5/4 102/7/4 101/8/4
f 101/8/1 102/7/1 98/9/1 97/10/1
f 99/11/5 103/6/5 101/8/5 97/12/5
f 104/5/6 100/13/6 98/14/6 102/7/6
f 105/1/3 106/2/3 108/3/3 107/4/3
f 107/4/4 108/3/4 112/5/4 111/6/4
f 111/6/1 112/5/1 110/7/1 109/8/1
f 109/8/2 110/7/2 106/9/2 105/10/2
f 107/11/5 111/6/5 109/8/5 105/12/5
f 112/5/6 108/13/6 106/14/6 110/7/6
f 113/1/3 114/2/3 116/3/3 115/4/3
f 115/4/4 116/3/4 120/5/4 119/6/4
f 119/6/1 120/5/1 118/7/1 117/8/1
f 117/69/2 118/70/2 114/71/2 113/72/2
f 115/11/5 119/6/5 117/8/5 113/12/5
f 120/5/6 116/13/6 114/14/6 118/7/6
